<?xml version="1.0" encoding="utf-8"?>
<!-- Generator: Adobe Illustrator 19.0.0, SVG Export Plug-In . SVG Version: 6.00 Build 0)  -->
<svg version="1.1" id="Layer_1" xmlns="http://www.w3.org/2000/svg" xmlns:xlink="http://www.w3.org/1999/xlink" x="0px" y="0px"
	 viewBox="-41 164.9 512 512" style="enable-background:new -41 164.9 512 512;" xml:space="preserve">
<style type="text/css">
	.st0{fill:#E2E5E7;}
	.st1{fill:#B0B7BD;}
	.st2{fill:#CAD1D8;}
	.st3{fill:#F15642;}
	.st4{fill:#FFFFFF;}
</style>
<path class="st0" d="M87,164.9c-17.6,0-32,14.4-32,32v448c0,17.6,14.4,32,32,32h320c17.6,0,32-14.4,32-32v-352l-128-128H87z"/>
<path class="st1" d="M343,292.9h96l-128-128v96C311,278.5,325.4,292.9,343,292.9z"/>
<polygon class="st2" points="439,388.9 343,292.9 439,292.9 "/>
<path class="st3" d="M375,580.9c0,8.8-7.2,16-16,16H7c-8.8,0-16-7.2-16-16v-160c0-8.8,7.2-16,16-16h352c8.8,0,16,7.2,16,16V580.9z"
	/>
<path class="st2" d="M359,596.9H55v16h304c8.8,0,16-7.2,16-16v-16C375,589.7,367.8,596.9,359,596.9z"/>
<g>
	<path class="st4" d="M78.4,503.3c0,5.1-0.9,9.7-2.6,14c-1.7,4.3-4.2,8-7.4,11.1c-3.2,3.1-7,5.6-11.5,7.3s-9.4,2.6-14.9,2.6H14.8
		v-70.1H42c5.5,0,10.4,0.9,14.9,2.6c4.5,1.8,8.3,4.2,11.5,7.3c3.2,3.1,5.6,6.8,7.4,11.1C77.5,493.6,78.4,498.3,78.4,503.3z
		 M61.7,503.3c0-3.5-0.4-6.6-1.3-9.4c-0.9-2.8-2.2-5.2-3.9-7.1c-1.7-1.9-3.7-3.4-6.2-4.5c-2.4-1-5.2-1.6-8.3-1.6H31.1v45.1H42
		c3.1,0,5.9-0.5,8.3-1.6c2.4-1,4.5-2.5,6.2-4.5c1.7-1.9,3-4.3,3.9-7.1C61.3,509.9,61.7,506.8,61.7,503.3z"/>
	<path class="st4" d="M104.2,496.7h2.6c2.4,0,4.1-0.8,5.2-2.3l15.8-22.9c0.9-1.2,1.9-2.1,3-2.5c1.1-0.5,2.4-0.7,4-0.7H149
		l-20.8,28.3c-1.5,2-3.1,3.4-4.8,4.2c1.2,0.4,2.3,1.1,3.3,1.9c1,0.8,1.9,1.8,2.8,3.1l21.2,32.5h-14.5c-0.9,0-1.7-0.1-2.4-0.2
		c-0.7-0.1-1.2-0.3-1.7-0.6c-0.5-0.3-0.9-0.6-1.3-0.9c-0.4-0.4-0.7-0.8-1-1.3L114,511c-0.6-0.9-1.3-1.5-2.2-1.9
		c-0.9-0.4-2.1-0.6-3.6-0.6h-3.9v29.8H88v-70.1h16.3V496.7z"/>
	<path class="st4" d="M202.9,468.3c4.9,0,9.2,0.6,12.7,1.8c3.5,1.2,6.5,2.8,8.8,4.8c2.3,2.1,4,4.5,5.1,7.3s1.6,5.8,1.6,9
		c0,3.5-0.6,6.7-1.7,9.6c-1.1,2.9-2.8,5.4-5.1,7.5c-2.3,2.1-5.2,3.7-8.8,4.9c-3.5,1.2-7.7,1.8-12.6,1.8h-8.5v23.4h-16.3v-70.1H202.9
		z M202.9,502.7c4.2,0,7.3-1,9.1-3c1.9-2,2.8-4.8,2.8-8.5c0-1.6-0.2-3.1-0.7-4.4c-0.5-1.3-1.2-2.4-2.2-3.4c-1-0.9-2.2-1.7-3.7-2.2
		c-1.5-0.5-3.3-0.8-5.3-0.8h-8.5v22.2H202.9z"/>
	<path class="st4" d="M302.9,503.3c0,5.1-0.9,9.7-2.6,14c-1.7,4.3-4.2,8-7.4,11.1c-3.2,3.1-7,5.6-11.5,7.3
		c-4.5,1.7-9.4,2.6-14.9,2.6h-27.2v-70.1h27.2c5.5,0,10.4,0.9,14.9,2.6c4.5,1.8,8.3,4.2,11.5,7.3c3.2,3.1,5.6,6.8,7.4,11.1
		C302.1,493.6,302.9,498.3,302.9,503.3z M286.3,503.3c0-3.5-0.4-6.6-1.3-9.4c-0.9-2.8-2.2-5.2-3.9-7.1c-1.7-1.9-3.7-3.4-6.2-4.5
		c-2.4-1-5.2-1.6-8.3-1.6h-10.9v45.1h10.9c3.1,0,5.9-0.5,8.3-1.6c2.4-1,4.5-2.5,6.2-4.5c1.7-1.9,3-4.3,3.9-7.1
		C285.8,509.9,286.3,506.8,286.3,503.3z"/>
	<path class="st4" d="M328.9,480.8v17.7h24v12.6h-24v27.3h-16.4v-70.1h45.1v12.5H328.9z"/>
</g>
</svg>
